<svg width="22" height="22" viewBox="0 0 22 22" fill="none" xmlns="http://www.w3.org/2000/svg">
<g clip-path="url(#clip0)">
<path d="M5.3505 21.081V2.25086L8.65972 5.56008C8.76763 5.66799 8.90701 5.72194 9.05089 5.72194C9.19477 5.72194 9.33415 5.66799 9.44206 5.56008C9.65788 5.34426 9.65788 4.99805 9.44206 4.78224L5.19313 0.533309C4.98631 0.326483 4.62211 0.326483 4.41529 0.533309L0.161864 4.78224C-0.0539546 4.99805 -0.0539546 5.34426 0.161864 5.56008C0.377682 5.7759 0.723891 5.7759 0.93971 5.56008L4.24893 2.25086V21.081C4.24893 21.3868 4.49622 21.6341 4.80196 21.6341C5.10321 21.6296 5.3505 21.3823 5.3505 21.081Z" fill="black"/>
<path d="M16.8068 21.4672C16.9147 21.5751 17.0541 21.6291 17.198 21.6291C17.3419 21.6291 17.4812 21.5751 17.5892 21.4672L21.8381 17.2183C22.0539 17.0024 22.0539 16.6562 21.8381 16.4404C21.6223 16.2246 21.2761 16.2246 21.0602 16.4404L17.751 19.7496V0.919475C17.751 0.613732 17.5037 0.36644 17.198 0.36644C16.8922 0.36644 16.6449 0.613732 16.6449 0.919475V19.7496L13.3402 16.4404C13.1244 16.2246 12.7782 16.2246 12.5624 16.4404C12.3466 16.6562 12.3466 17.0024 12.5624 17.2183L16.8068 21.4672Z" fill="black"/>
</g>
<defs>
<clipPath id="clip0">
<rect width="22" height="22" fill="white"/>
</clipPath>
</defs>
</svg>
